<?xml version="1.0" encoding="UTF-8" standalone="no"?>
<svg
   xmlns:dc="http://purl.org/dc/elements/1.1/"
   xmlns:cc="http://creativecommons.org/ns#"
   xmlns:rdf="http://www.w3.org/1999/02/22-rdf-syntax-ns#"
   xmlns:svg="http://www.w3.org/2000/svg"
   xmlns="http://www.w3.org/2000/svg"
   xmlns:sodipodi="http://sodipodi.sourceforge.net/DTD/sodipodi-0.dtd"
   xmlns:inkscape="http://www.inkscape.org/namespaces/inkscape"
   version="1.1"
   viewBox="0 0 182.4 182"
   height="182"
   width="182.39999"
   data-name="logo epfl 2019"
   id="logo_epfl_2019"
   sodipodi:docname="epfl.svg"
   inkscape:version="0.92.1 r15371">
  <sodipodi:namedview
     pagecolor="#ffffff"
     bordercolor="#666666"
     borderopacity="1"
     objecttolerance="10"
     gridtolerance="10"
     guidetolerance="10"
     inkscape:pageopacity="0"
     inkscape:pageshadow="2"
     inkscape:window-width="1718"
     inkscape:window-height="1408"
     id="namedview15"
     showgrid="false"
     inkscape:zoom="1.9572369"
     inkscape:cx="91.199997"
     inkscape:cy="26.5"
     inkscape:window-x="3633"
     inkscape:window-y="0"
     inkscape:window-maximized="0"
     inkscape:current-layer="logo_epfl_2019" />
  <metadata
     id="metadata27">
    <rdf:RDF>
      <cc:Work
         rdf:about="">
        <dc:format>image/svg+xml</dc:format>
        <dc:type
           rdf:resource="http://purl.org/dc/dcmitype/StillImage" />
        <dc:title>epfl-logo-new</dc:title>
      </cc:Work>
    </rdf:RDF>
  </metadata>
  <defs
     id="defs4">
    <style
       id="style2">.cls-1{fill:red;}</style>
  </defs>
  <title
     id="title6">epfl-logo-new</title>
  <path
     id="polygon8"
     d="m 0,87.24538 h 11.43 v -11.8 h 26.91 v -9.8 H 0 Z"
     style="opacity:0.83999999;fill:#ff0000"
     inkscape:connector-curvature="0" />
  <path
     id="polygon10"
     d="m 0,118.64538 h 38.34 v -9.8 H 11.43 v -11.8 H 0 Z"
     style="opacity:0.83999999;fill:#ff0000"
     inkscape:connector-curvature="0" />
  <path
     id="rect12"
     d="m 11.43,87.24538 h 24.610001 v 9.8 H 11.43 Z"
     style="opacity:0.83999999;fill:#ff0000"
     inkscape:connector-curvature="0" />
  <path
     style="opacity:0.83999999;fill:#ff0000"
     id="path14"
     d="m 86,70.51538 a 16.12,16.12 0 0 0 -5.68,-3.53 23.76,23.76 0 0 0 -8.5,-1.34 H 48.14 v 53 h 11.43 v -21.6 h 12.25 a 23.76,23.76 0 0 0 8.46,-1.34 16.12,16.12 0 0 0 5.72,-3.53 13.43,13.43 0 0 0 3.19,-5 17.38,17.38 0 0 0 0,-11.62 13.52,13.52 0 0 0 -3.19,-5.04 z m -8,13.86 a 5.7,5.7 0 0 1 -2.26,1.8 11.33,11.33 0 0 1 -3.27,0.85 32,32 0 0 1 -3.86,0.22 h -9.04 v -11.8 h 9.05 a 32,32 0 0 1 3.86,0.22 11,11 0 0 1 3.27,0.86 5.59,5.59 0 0 1 2.25,1.79 5,5 0 0 1 0.86,3 5,5 0 0 1 -0.86,3.06 z"
     class="cls-1"
     inkscape:connector-curvature="0" />
  <path
     id="polygon16"
     d="m 155.47,108.84538 v -43.2 h -11.43 v 53 h 38.34 v -9.8 z"
     style="opacity:0.83999999;fill:#ff0000"
     inkscape:connector-curvature="0" />
  <path
     id="polygon18"
     d="m 97.42,87.24538 h 11.43 v -11.8 h 26.91 v -9.8 H 97.42 Z"
     style="opacity:0.83999999;fill:#ff0000"
     inkscape:connector-curvature="0" />
  <path
     id="rect20"
     d="M 97.419998,97.04538 H 108.85 v 21.6 H 97.419998 Z"
     style="opacity:0.83999999;fill:#ff0000"
     inkscape:connector-curvature="0" />
  <path
     id="rect22"
     d="m 108.85,87.24538 h 24.61 v 9.8 h -24.61 z"
     style="opacity:0.83999999;fill:#ff0000"
     inkscape:connector-curvature="0" />
</svg>
